<svg width="128" height="30" viewBox="0 0 128 30" fill="none" xmlns="http://www.w3.org/2000/svg">
<path d="M1.27266 22.8L2.13149 8.2H15.8685L16.7273 22.8H1.27266Z" stroke="white" stroke-width="2.4"/>
<path d="M5 7V5C5 4.44772 5.44772 4 6 4H12C12.5523 4 13 4.44772 13 5V7" stroke="white" stroke-width="2.4"/>
<path d="M34.3262 8.80273C34.3262 8.42773 34.1934 8.13867 33.9277 7.93555C33.666 7.73242 33.1914 7.52734 32.5039 7.32031C31.8164 7.11328 31.2695 6.88281 30.8633 6.62891C30.0859 6.14062 29.6973 5.50391 29.6973 4.71875C29.6973 4.03125 29.9766 3.46484 30.5352 3.01953C31.0977 2.57422 31.8262 2.35156 32.7207 2.35156C33.3145 2.35156 33.8438 2.46094 34.3086 2.67969C34.7734 2.89844 35.1387 3.21094 35.4043 3.61719C35.6699 4.01953 35.8027 4.4668 35.8027 4.95898H34.3262C34.3262 4.51367 34.1855 4.16602 33.9043 3.91602C33.627 3.66211 33.2285 3.53516 32.709 3.53516C32.2246 3.53516 31.8477 3.63867 31.5781 3.8457C31.3125 4.05273 31.1797 4.3418 31.1797 4.71289C31.1797 5.02539 31.3242 5.28711 31.6133 5.49805C31.9023 5.70508 32.3789 5.9082 33.043 6.10742C33.707 6.30273 34.2402 6.52734 34.6426 6.78125C35.0449 7.03125 35.3398 7.32031 35.5273 7.64844C35.7148 7.97266 35.8086 8.35352 35.8086 8.79102C35.8086 9.50195 35.5352 10.0684 34.9883 10.4902C34.4453 10.9082 33.707 11.1172 32.7734 11.1172C32.1562 11.1172 31.5879 11.0039 31.0684 10.7773C30.5527 10.5469 30.1504 10.2305 29.8613 9.82812C29.5762 9.42578 29.4336 8.95703 29.4336 8.42188H30.916C30.916 8.90625 31.0762 9.28125 31.3965 9.54688C31.7168 9.8125 32.1758 9.94531 32.7734 9.94531C33.2891 9.94531 33.6758 9.8418 33.9336 9.63477C34.1953 9.42383 34.3262 9.14648 34.3262 8.80273ZM38.495 5.35156C38.9598 4.8125 39.5477 4.54297 40.2587 4.54297C41.6102 4.54297 42.2958 5.31445 42.3153 6.85742V11H40.8915V6.91016C40.8915 6.47266 40.7958 6.16406 40.6044 5.98438C40.4169 5.80078 40.1395 5.70898 39.7723 5.70898C39.202 5.70898 38.7762 5.96289 38.495 6.4707V11H37.0712V2H38.495V5.35156ZM43.613 7.77148C43.613 7.15039 43.7361 6.5918 43.9822 6.0957C44.2283 5.5957 44.574 5.21289 45.0193 4.94727C45.4646 4.67773 45.9763 4.54297 46.5545 4.54297C47.4099 4.54297 48.1033 4.81836 48.6345 5.36914C49.1697 5.91992 49.4587 6.65039 49.5017 7.56055L49.5076 7.89453C49.5076 8.51953 49.3865 9.07812 49.1443 9.57031C48.906 10.0625 48.5623 10.4434 48.113 10.7129C47.6677 10.9824 47.1521 11.1172 46.5662 11.1172C45.6716 11.1172 44.9548 10.8203 44.4158 10.2266C43.8806 9.62891 43.613 8.83398 43.613 7.8418V7.77148ZM45.0369 7.89453C45.0369 8.54688 45.1716 9.05859 45.4412 9.42969C45.7107 9.79688 46.0857 9.98047 46.5662 9.98047C47.0466 9.98047 47.4197 9.79297 47.6853 9.41797C47.9548 9.04297 48.0896 8.49414 48.0896 7.77148C48.0896 7.13086 47.9509 6.62305 47.6736 6.24805C47.4002 5.87305 47.0271 5.68555 46.5545 5.68555C46.0896 5.68555 45.7205 5.87109 45.447 6.24219C45.1736 6.60938 45.0369 7.16016 45.0369 7.89453ZM56.3834 7.89453C56.3834 8.875 56.1608 9.6582 55.7155 10.2441C55.2702 10.8262 54.6725 11.1172 53.9225 11.1172C53.2272 11.1172 52.6705 10.8887 52.2526 10.4316V13.4375H50.8288V4.66016H52.1413L52.1998 5.30469C52.6178 4.79688 53.1862 4.54297 53.9049 4.54297C54.6784 4.54297 55.2838 4.83203 55.7213 5.41016C56.1627 5.98438 56.3834 6.7832 56.3834 7.80664V7.89453ZM54.9655 7.77148C54.9655 7.13867 54.8385 6.63672 54.5846 6.26562C54.3346 5.89453 53.9752 5.70898 53.5065 5.70898C52.9245 5.70898 52.5065 5.94922 52.2526 6.42969V9.24219C52.5104 9.73438 52.9323 9.98047 53.5182 9.98047C53.9713 9.98047 54.3248 9.79883 54.5788 9.43555C54.8366 9.06836 54.9655 8.51367 54.9655 7.77148ZM63.2652 7.89453C63.2652 8.875 63.0425 9.6582 62.5972 10.2441C62.1519 10.8262 61.5542 11.1172 60.8042 11.1172C60.1089 11.1172 59.5523 10.8887 59.1343 10.4316V13.4375H57.7105V4.66016H59.023L59.0816 5.30469C59.4995 4.79688 60.0679 4.54297 60.7866 4.54297C61.5601 4.54297 62.1655 4.83203 62.603 5.41016C63.0445 5.98438 63.2652 6.7832 63.2652 7.80664V7.89453ZM61.8472 7.77148C61.8472 7.13867 61.7202 6.63672 61.4663 6.26562C61.2163 5.89453 60.857 5.70898 60.3882 5.70898C59.8062 5.70898 59.3882 5.94922 59.1343 6.42969V9.24219C59.3921 9.73438 59.814 9.98047 60.3999 9.98047C60.853 9.98047 61.2066 9.79883 61.4605 9.43555C61.7183 9.06836 61.8472 8.51367 61.8472 7.77148ZM66.1098 11H64.6859V4.66016H66.1098V11ZM64.598 3.01367C64.598 2.79492 64.6664 2.61328 64.8031 2.46875C64.9437 2.32422 65.143 2.25195 65.4008 2.25195C65.6586 2.25195 65.8578 2.32422 65.9984 2.46875C66.1391 2.61328 66.2094 2.79492 66.2094 3.01367C66.2094 3.22852 66.1391 3.4082 65.9984 3.55273C65.8578 3.69336 65.6586 3.76367 65.4008 3.76367C65.143 3.76367 64.9437 3.69336 64.8031 3.55273C64.6664 3.4082 64.598 3.22852 64.598 3.01367ZM69.1067 4.66016L69.1477 5.39258C69.6165 4.82617 70.2317 4.54297 70.9934 4.54297C72.3138 4.54297 72.9856 5.29883 73.0091 6.81055V11H71.5852V6.89258C71.5852 6.49023 71.4973 6.19336 71.3216 6.00195C71.1497 5.80664 70.8665 5.70898 70.472 5.70898C69.8977 5.70898 69.47 5.96875 69.1888 6.48828V11H67.7649V4.66016H69.1067ZM74.3361 7.7832C74.3361 6.79883 74.5666 6.01367 75.0275 5.42773C75.4923 4.83789 76.1076 4.54297 76.8732 4.54297C77.5959 4.54297 78.1642 4.79492 78.5783 5.29883L78.6427 4.66016H79.9259V10.8066C79.9259 11.6387 79.6662 12.2949 79.1466 12.7754C78.631 13.2559 77.9338 13.4961 77.0548 13.4961C76.59 13.4961 76.1349 13.3984 75.6896 13.2031C75.2482 13.0117 74.9123 12.7598 74.6818 12.4473L75.3556 11.5918C75.7931 12.1113 76.3322 12.3711 76.9728 12.3711C77.4455 12.3711 77.8185 12.2422 78.092 11.9844C78.3654 11.7305 78.5021 11.3555 78.5021 10.8594V10.4316C78.092 10.8887 77.5451 11.1172 76.8615 11.1172C76.1193 11.1172 75.5119 10.8223 75.0392 10.2324C74.5705 9.64258 74.3361 8.82617 74.3361 7.7832ZM75.7541 7.90625C75.7541 8.54297 75.883 9.04492 76.1408 9.41211C76.4025 9.77539 76.7638 9.95703 77.2248 9.95703C77.799 9.95703 78.2248 9.71094 78.5021 9.21875V6.42969C78.2326 5.94922 77.8107 5.70898 77.2365 5.70898C76.7677 5.70898 76.4025 5.89453 76.1408 6.26562C75.883 6.63672 75.7541 7.18359 75.7541 7.90625ZM91.2695 8.22266C91.1835 9.13281 90.8476 9.84375 90.2616 10.3555C89.6757 10.8633 88.8964 11.1172 87.9238 11.1172C87.2441 11.1172 86.6445 10.957 86.1249 10.6367C85.6093 10.3125 85.2109 9.85352 84.9296 9.25977C84.6484 8.66602 84.5019 7.97656 84.4902 7.19141V6.39453C84.4902 5.58984 84.6327 4.88086 84.9179 4.26758C85.203 3.6543 85.6113 3.18164 86.1425 2.84961C86.6777 2.51758 87.2948 2.35156 87.9941 2.35156C88.9355 2.35156 89.6933 2.60742 90.2675 3.11914C90.8417 3.63086 91.1757 4.35352 91.2695 5.28711H89.7929C89.7226 4.67383 89.5429 4.23242 89.2538 3.96289C88.9687 3.68945 88.5488 3.55273 87.9941 3.55273C87.3495 3.55273 86.8534 3.78906 86.5058 4.26172C86.162 4.73047 85.9863 5.41992 85.9784 6.33008V7.08594C85.9784 8.00781 86.1425 8.71094 86.4706 9.19531C86.8027 9.67969 87.287 9.92188 87.9238 9.92188C88.5058 9.92188 88.9433 9.79102 89.2363 9.5293C89.5292 9.26758 89.7148 8.83203 89.7929 8.22266H91.2695ZM96.3699 11C96.3074 10.8789 96.2527 10.6816 96.2059 10.4082C95.7527 10.8809 95.198 11.1172 94.5418 11.1172C93.9051 11.1172 93.3855 10.9355 92.9832 10.5723C92.5809 10.209 92.3797 9.75977 92.3797 9.22461C92.3797 8.54883 92.6297 8.03125 93.1297 7.67188C93.6336 7.30859 94.3523 7.12695 95.2859 7.12695H96.159V6.71094C96.159 6.38281 96.0672 6.12109 95.8836 5.92578C95.7 5.72656 95.4207 5.62695 95.0457 5.62695C94.7215 5.62695 94.4559 5.70898 94.2488 5.87305C94.0418 6.0332 93.9383 6.23828 93.9383 6.48828H92.5145C92.5145 6.14062 92.6297 5.81641 92.8602 5.51562C93.0906 5.21094 93.4031 4.97266 93.7977 4.80078C94.1961 4.62891 94.6395 4.54297 95.1277 4.54297C95.8699 4.54297 96.4617 4.73047 96.9031 5.10547C97.3445 5.47656 97.5711 6 97.5828 6.67578V9.53516C97.5828 10.1055 97.6629 10.5605 97.823 10.9004V11H96.3699ZM94.8055 9.97461C95.0867 9.97461 95.3504 9.90625 95.5965 9.76953C95.8465 9.63281 96.034 9.44922 96.159 9.21875V8.02344H95.3914C94.8641 8.02344 94.4676 8.11523 94.202 8.29883C93.9363 8.48242 93.8035 8.74219 93.8035 9.07812C93.8035 9.35156 93.8934 9.57031 94.073 9.73438C94.2566 9.89453 94.5008 9.97461 94.8055 9.97461ZM102.513 5.96094C102.326 5.92969 102.132 5.91406 101.933 5.91406C101.281 5.91406 100.841 6.16406 100.615 6.66406V11H99.1911V4.66016H100.55L100.586 5.36914C100.929 4.81836 101.406 4.54297 102.015 4.54297C102.218 4.54297 102.386 4.57031 102.519 4.625L102.513 5.96094ZM105.61 3.11914V4.66016H106.729V5.71484H105.61V9.25391C105.61 9.49609 105.657 9.67188 105.751 9.78125C105.848 9.88672 106.02 9.93945 106.266 9.93945C106.43 9.93945 106.596 9.91992 106.764 9.88086V10.9824C106.44 11.0723 106.128 11.1172 105.827 11.1172C104.733 11.1172 104.186 10.5137 104.186 9.30664V5.71484H103.143V4.66016H104.186V3.11914H105.61Z" fill="white"/>
<path d="M36.3828 21.1484V22.8711C36.3828 23.6185 36.3031 24.2633 36.1436 24.8057C35.984 25.3434 35.7539 25.7855 35.4531 26.1318C35.1569 26.4736 34.8037 26.7266 34.3936 26.8906C33.9834 27.0547 33.5277 27.1367 33.0264 27.1367C32.6253 27.1367 32.2516 27.0866 31.9053 26.9863C31.5589 26.8815 31.2467 26.7197 30.9688 26.501C30.6953 26.2822 30.4583 26.0065 30.2578 25.6738C30.0618 25.3366 29.9115 24.9355 29.8066 24.4707C29.7018 24.0059 29.6494 23.4727 29.6494 22.8711V21.1484C29.6494 20.401 29.7292 19.7607 29.8887 19.2275C30.0527 18.6898 30.2829 18.25 30.5791 17.9082C30.8799 17.5664 31.2354 17.3158 31.6455 17.1562C32.0557 16.9922 32.5114 16.9102 33.0127 16.9102C33.4137 16.9102 33.7852 16.9626 34.127 17.0674C34.4733 17.1676 34.7855 17.3249 35.0635 17.5391C35.3415 17.7533 35.5785 18.029 35.7744 18.3662C35.9704 18.6989 36.1208 19.0977 36.2256 19.5625C36.3304 20.0228 36.3828 20.5514 36.3828 21.1484ZM34.4072 23.1309V20.8818C34.4072 20.5218 34.3867 20.2074 34.3457 19.9385C34.3092 19.6696 34.2523 19.4417 34.1748 19.2549C34.0973 19.0635 34.0016 18.9085 33.8877 18.79C33.7738 18.6715 33.6439 18.585 33.498 18.5303C33.3522 18.4756 33.1904 18.4482 33.0127 18.4482C32.7894 18.4482 32.5911 18.4915 32.418 18.5781C32.2493 18.6647 32.1058 18.8037 31.9873 18.9951C31.8688 19.182 31.7777 19.4326 31.7139 19.7471C31.6546 20.057 31.625 20.4352 31.625 20.8818V23.1309C31.625 23.4909 31.6432 23.8076 31.6797 24.0811C31.7207 24.3545 31.7799 24.5892 31.8574 24.7852C31.9395 24.9766 32.0352 25.1338 32.1445 25.2568C32.2585 25.3753 32.3883 25.4619 32.5342 25.5166C32.6846 25.5713 32.8486 25.5986 33.0264 25.5986C33.2451 25.5986 33.4388 25.5553 33.6074 25.4688C33.7806 25.3776 33.9264 25.2363 34.0449 25.0449C34.168 24.849 34.2591 24.5938 34.3184 24.2793C34.3776 23.9648 34.4072 23.582 34.4072 23.1309ZM39.8109 25.3389L39.8041 26.6582C39.8041 27.1641 39.6765 27.6745 39.4213 28.1895C39.1706 28.7044 38.8516 29.126 38.4642 29.4541L37.4388 28.9277C37.5528 28.7181 37.6644 28.5085 37.7738 28.2988C37.8832 28.0892 37.9743 27.859 38.0472 27.6084C38.1201 27.3577 38.1566 27.0729 38.1566 26.7539V25.3389H39.8109ZM48.1472 21.1484V22.8711C48.1472 23.6185 48.0674 24.2633 47.9079 24.8057C47.7484 25.3434 47.5183 25.7855 47.2175 26.1318C46.9213 26.4736 46.5681 26.7266 46.1579 26.8906C45.7478 27.0547 45.292 27.1367 44.7907 27.1367C44.3897 27.1367 44.016 27.0866 43.6696 26.9863C43.3233 26.8815 43.0111 26.7197 42.7331 26.501C42.4597 26.2822 42.2227 26.0065 42.0222 25.6738C41.8262 25.3366 41.6758 24.9355 41.571 24.4707C41.4662 24.0059 41.4138 23.4727 41.4138 22.8711V21.1484C41.4138 20.401 41.4935 19.7607 41.653 19.2275C41.8171 18.6898 42.0473 18.25 42.3435 17.9082C42.6443 17.5664 42.9997 17.3158 43.4099 17.1562C43.82 16.9922 44.2758 16.9102 44.7771 16.9102C45.1781 16.9102 45.5495 16.9626 45.8913 17.0674C46.2377 17.1676 46.5499 17.3249 46.8279 17.5391C47.1058 17.7533 47.3428 18.029 47.5388 18.3662C47.7348 18.6989 47.8851 19.0977 47.99 19.5625C48.0948 20.0228 48.1472 20.5514 48.1472 21.1484ZM46.1716 23.1309V20.8818C46.1716 20.5218 46.1511 20.2074 46.1101 19.9385C46.0736 19.6696 46.0167 19.4417 45.9392 19.2549C45.8617 19.0635 45.766 18.9085 45.6521 18.79C45.5381 18.6715 45.4083 18.585 45.2624 18.5303C45.1166 18.4756 44.9548 18.4482 44.7771 18.4482C44.5538 18.4482 44.3555 18.4915 44.1823 18.5781C44.0137 18.6647 43.8702 18.8037 43.7517 18.9951C43.6332 19.182 43.542 19.4326 43.4782 19.7471C43.419 20.057 43.3894 20.4352 43.3894 20.8818V23.1309C43.3894 23.4909 43.4076 23.8076 43.4441 24.0811C43.4851 24.3545 43.5443 24.5892 43.6218 24.7852C43.7038 24.9766 43.7995 25.1338 43.9089 25.2568C44.0228 25.3753 44.1527 25.4619 44.2986 25.5166C44.4489 25.5713 44.613 25.5986 44.7907 25.5986C45.0095 25.5986 45.2032 25.5553 45.3718 25.4688C45.545 25.3776 45.6908 25.2363 45.8093 25.0449C45.9323 24.849 46.0235 24.5938 46.0827 24.2793C46.142 23.9648 46.1716 23.582 46.1716 23.1309ZM56.3263 21.1484V22.8711C56.3263 23.6185 56.2465 24.2633 56.087 24.8057C55.9275 25.3434 55.6973 25.7855 55.3966 26.1318C55.1003 26.4736 54.7471 26.7266 54.337 26.8906C53.9268 27.0547 53.4711 27.1367 52.9698 27.1367C52.5688 27.1367 52.1951 27.0866 51.8487 26.9863C51.5024 26.8815 51.1902 26.7197 50.9122 26.501C50.6388 26.2822 50.4018 26.0065 50.2013 25.6738C50.0053 25.3366 49.8549 24.9355 49.7501 24.4707C49.6453 24.0059 49.5929 23.4727 49.5929 22.8711V21.1484C49.5929 20.401 49.6726 19.7607 49.8321 19.2275C49.9962 18.6898 50.2263 18.25 50.5225 17.9082C50.8233 17.5664 51.1788 17.3158 51.5889 17.1562C51.9991 16.9922 52.4548 16.9102 52.9561 16.9102C53.3572 16.9102 53.7286 16.9626 54.0704 17.0674C54.4167 17.1676 54.7289 17.3249 55.0069 17.5391C55.2849 17.7533 55.5219 18.029 55.7179 18.3662C55.9138 18.6989 56.0642 19.0977 56.169 19.5625C56.2738 20.0228 56.3263 20.5514 56.3263 21.1484ZM54.3507 23.1309V20.8818C54.3507 20.5218 54.3302 20.2074 54.2891 19.9385C54.2527 19.6696 54.1957 19.4417 54.1182 19.2549C54.0408 19.0635 53.9451 18.9085 53.8311 18.79C53.7172 18.6715 53.5873 18.585 53.4415 18.5303C53.2957 18.4756 53.1339 18.4482 52.9561 18.4482C52.7328 18.4482 52.5346 18.4915 52.3614 18.5781C52.1928 18.6647 52.0492 18.8037 51.9307 18.9951C51.8123 19.182 51.7211 19.4326 51.6573 19.7471C51.5981 20.057 51.5684 20.4352 51.5684 20.8818V23.1309C51.5684 23.4909 51.5867 23.8076 51.6231 24.0811C51.6641 24.3545 51.7234 24.5892 51.8009 24.7852C51.8829 24.9766 51.9786 25.1338 52.088 25.2568C52.2019 25.3753 52.3318 25.4619 52.4776 25.5166C52.628 25.5713 52.7921 25.5986 52.9698 25.5986C53.1886 25.5986 53.3822 25.5553 53.5509 25.4688C53.724 25.3776 53.8699 25.2363 53.9884 25.0449C54.1114 24.849 54.2026 24.5938 54.2618 24.2793C54.321 23.9648 54.3507 23.582 54.3507 23.1309ZM68.3162 25.4004V27H63.0184V25.4004H68.3162ZM63.6883 17.0469V27H61.6375V17.0469H63.6883ZM67.6258 21.1006V22.6592H63.0184V21.1006H67.6258ZM68.3094 17.0469V18.6533H63.0184V17.0469H68.3094ZM75.1486 17.0469H77.1925V23.623C77.1925 24.3887 77.0285 25.0335 76.7004 25.5576C76.3768 26.0817 75.9279 26.4759 75.3537 26.7402C74.784 27.0046 74.1278 27.1367 73.3849 27.1367C72.6421 27.1367 71.9813 27.0046 71.4025 26.7402C70.8283 26.4759 70.3771 26.0817 70.049 25.5576C69.7254 25.0335 69.5636 24.3887 69.5636 23.623V17.0469H71.6144V23.623C71.6144 24.0697 71.6851 24.4342 71.8263 24.7168C71.9676 24.9993 72.1704 25.2067 72.4347 25.3389C72.7036 25.471 73.0203 25.5371 73.3849 25.5371C73.7586 25.5371 74.0754 25.471 74.3351 25.3389C74.5994 25.2067 74.8 24.9993 74.9367 24.7168C75.078 24.4342 75.1486 24.0697 75.1486 23.623V17.0469ZM79.021 17.0469H82.7329C83.494 17.0469 84.148 17.1608 84.6948 17.3887C85.2463 17.6165 85.6701 17.9538 85.9663 18.4004C86.2626 18.847 86.4107 19.3962 86.4107 20.0479C86.4107 20.5811 86.3195 21.0391 86.1372 21.4219C85.9595 21.8001 85.7066 22.1169 85.3784 22.3721C85.0549 22.6227 84.6743 22.8232 84.2368 22.9736L83.5874 23.3154H80.3609L80.3472 21.7158H82.7466C83.1066 21.7158 83.4051 21.652 83.6421 21.5244C83.8791 21.3968 84.0568 21.2191 84.1753 20.9912C84.2984 20.7633 84.3599 20.499 84.3599 20.1982C84.3599 19.8792 84.3006 19.6035 84.1821 19.3711C84.0637 19.1387 83.8836 18.9609 83.6421 18.8379C83.4006 18.7148 83.0975 18.6533 82.7329 18.6533H81.0718V27H79.021V17.0469ZM84.5855 27L82.3159 22.5635L84.4829 22.5498L86.7798 26.9043V27H84.5855Z" fill="white"/>
</svg>
