<svg width="21" height="21" viewBox="0 0 21 21" fill="none" xmlns="http://www.w3.org/2000/svg">
<g clip-path="url(#clip0_53_51)">
<path d="M3.82948 21H17.1725H18.3075H21.0007V18.3063V17.6161V3.38399V2.69324V0H18.3075H17.1725H3.82948H2.69449H0.000976562V2.69324V3.38422V17.616V18.3063V21H2.69422H3.82948V21ZM14.3565 3.28109C14.3565 3.02582 14.4473 2.80538 14.6299 2.61775C14.8121 2.43136 15.0351 2.3379 15.2999 2.3379H17.6788C17.943 2.3379 18.1663 2.43132 18.3487 2.61775C18.5308 2.80511 18.6221 3.02582 18.6221 3.28109V5.53693C18.6221 5.80117 18.5308 6.02493 18.3487 6.20664C18.1663 6.38928 17.943 6.48012 17.6788 6.48012H15.2996C15.0351 6.48012 14.8118 6.38928 14.6297 6.20664C14.4473 6.02497 14.3562 5.80117 14.3562 5.53693V3.28109H14.3565ZM13.5017 8.37238C14.3264 9.16981 14.739 10.1336 14.739 11.2636C14.739 12.3942 14.3264 13.3581 13.5017 14.1551C12.6766 14.953 11.681 15.3514 10.5145 15.3514C9.35674 15.3514 8.36578 14.953 7.5409 14.1551C6.71576 13.3584 6.30367 12.3944 6.30367 11.2636C6.30367 10.1336 6.71599 9.16957 7.5409 8.37238C8.36578 7.57491 9.35698 7.17608 10.5145 7.17608C11.6812 7.17608 12.6766 7.57518 13.5017 8.37238ZM5.64652 3.28109C5.64652 3.02582 5.73736 2.80538 5.92 2.61775C6.10213 2.43136 6.32547 2.3379 6.58994 2.3379H7.09074C7.35498 2.3379 7.57828 2.43132 7.76069 2.61775C7.94306 2.80511 8.03417 3.02582 8.03417 3.28109V5.53693C8.03417 5.80117 7.9431 6.02493 7.76069 6.20664C7.57828 6.38928 7.35498 6.48012 7.09074 6.48012H6.58994C6.32547 6.48012 6.10213 6.38928 5.92 6.20664C5.73763 6.02497 5.64652 5.80117 5.64652 5.53693V3.28109ZM2.33891 3.28109C2.33891 3.02582 2.42998 2.80538 2.61239 2.61775C2.79453 2.43136 3.01764 2.3379 3.28234 2.3379H3.78314C4.04737 2.3379 4.27068 2.43132 4.45308 2.61775C4.63545 2.80511 4.72656 3.02582 4.72656 3.28109V5.53693C4.72656 5.80117 4.63549 6.02493 4.45308 6.20664C4.27068 6.38928 4.04737 6.48012 3.78314 6.48012H3.28234C3.01787 6.48012 2.79453 6.38928 2.61239 6.20664C2.43002 6.02497 2.33891 5.80117 2.33891 5.53693V3.28109ZM2.33891 18.2826V9.42318H4.26666C4.08425 9.99731 3.99318 10.5949 3.99318 11.2144C3.99318 12.964 4.63097 14.4572 5.9072 15.6918C7.1832 16.9267 8.71896 17.5438 10.5147 17.5438C11.6994 17.5438 12.793 17.2619 13.7958 16.6962C14.7984 16.1318 15.5913 15.3632 16.1747 14.3928C16.7578 13.422 17.0495 12.3625 17.0495 11.2142C17.0495 10.5946 16.9584 9.99708 16.776 9.42295H18.6217V18.2827C18.6217 18.5197 18.5396 18.718 18.3757 18.8771C18.2118 19.0373 18.0157 19.1163 17.7878 19.1163H3.17279C2.93577 19.1163 2.73751 19.0373 2.57806 18.8771C2.41862 18.7179 2.33891 18.5197 2.33891 18.2826Z" fill="white"/>
</g>
<defs>
<clipPath id="clip0_53_51">
<rect width="21" height="21" fill="white"/>
</clipPath>
</defs>
</svg>
