<svg width="69" height="21" viewBox="0 0 69 21" fill="none" xmlns="http://www.w3.org/2000/svg">
<path d="M27.794 17.154C27.094 17.154 26.5107 17.028 26.044 16.776C25.5773 16.5147 25.2227 16.1273 24.98 15.614C24.7467 15.0913 24.6113 14.4287 24.574 13.626L26.562 13.29C26.5807 13.7567 26.6273 14.1487 26.702 14.466C26.786 14.774 26.9073 15.0073 27.066 15.166C27.234 15.3153 27.4393 15.39 27.682 15.39C27.9807 15.39 28.1813 15.2967 28.284 15.11C28.396 14.9233 28.452 14.7087 28.452 14.466C28.452 13.99 28.3353 13.5933 28.102 13.276C27.878 12.9493 27.5793 12.6227 27.206 12.296L26.03 11.274C25.61 10.9193 25.2647 10.518 24.994 10.07C24.7327 9.622 24.602 9.07133 24.602 8.418C24.602 7.48467 24.8727 6.77067 25.414 6.276C25.9647 5.772 26.716 5.52 27.668 5.52C28.2373 5.52 28.704 5.61333 29.068 5.8C29.432 5.98667 29.712 6.23867 29.908 6.556C30.1133 6.864 30.2533 7.20467 30.328 7.578C30.412 7.942 30.4633 8.306 30.482 8.67L28.508 8.964C28.4893 8.61867 28.4567 8.31533 28.41 8.054C28.3727 7.79267 28.2887 7.58733 28.158 7.438C28.0367 7.28867 27.85 7.214 27.598 7.214C27.3273 7.214 27.1267 7.31667 26.996 7.522C26.8653 7.718 26.8 7.93733 26.8 8.18C26.8 8.58133 26.8887 8.91267 27.066 9.174C27.2527 9.426 27.5047 9.692 27.822 9.972L28.97 10.98C29.446 11.3907 29.852 11.862 30.188 12.394C30.5333 12.9167 30.706 13.5653 30.706 14.34C30.706 14.872 30.5847 15.3527 30.342 15.782C30.0993 16.2113 29.7587 16.5473 29.32 16.79C28.8907 17.0327 28.382 17.154 27.794 17.154ZM31.9224 17V5.66H36.8644V7.256H34.2324V10.266H36.2624V11.876H34.2324V15.432H36.8924V17H31.9224ZM37.501 17L39.699 5.66H42.261L44.445 17H42.303L41.897 14.508H40.105L39.671 17H37.501ZM40.315 13.094H41.673L40.987 8.516L40.315 13.094ZM45.5942 17V5.66H48.5342C49.2996 5.66 49.9529 5.74867 50.4942 5.926C51.0449 6.094 51.4649 6.39733 51.7542 6.836C52.0529 7.27467 52.2022 7.88133 52.2022 8.656C52.2022 9.12267 52.1602 9.538 52.0762 9.902C52.0016 10.2567 51.8616 10.5693 51.6562 10.84C51.4602 11.1013 51.1802 11.3113 50.8162 11.47L52.3842 17H50.0182L48.7162 11.862H47.9042V17H45.5942ZM47.9042 10.49H48.5762C48.9496 10.49 49.2436 10.4293 49.4582 10.308C49.6729 10.1867 49.8222 10.0047 49.9062 9.762C49.9996 9.51 50.0462 9.202 50.0462 8.838C50.0462 8.31533 49.9482 7.91867 49.7522 7.648C49.5656 7.368 49.2109 7.228 48.6882 7.228H47.9042V10.49ZM56.8243 17.154C55.9843 17.154 55.317 16.9953 54.8223 16.678C54.337 16.3607 53.9963 15.922 53.8003 15.362C53.6043 14.7927 53.5063 14.1347 53.5063 13.388V9.314C53.5063 8.53 53.6043 7.858 53.8003 7.298C53.9963 6.72867 54.337 6.29 54.8223 5.982C55.317 5.674 55.9843 5.52 56.8243 5.52C57.6363 5.52 58.271 5.65533 58.7283 5.926C59.195 6.19667 59.5216 6.57933 59.7083 7.074C59.9043 7.56867 60.0023 8.14267 60.0023 8.796V9.748H57.7623V8.684C57.7623 8.42267 57.7483 8.18 57.7203 7.956C57.6923 7.72267 57.613 7.536 57.4823 7.396C57.361 7.24667 57.1463 7.172 56.8383 7.172C56.5303 7.172 56.3063 7.24667 56.1663 7.396C56.0263 7.54533 55.9376 7.74133 55.9003 7.984C55.863 8.21733 55.8443 8.47867 55.8443 8.768V13.92C55.8443 14.2373 55.8676 14.5173 55.9143 14.76C55.9703 14.9933 56.0683 15.1753 56.2083 15.306C56.3576 15.4273 56.5676 15.488 56.8383 15.488C57.137 15.488 57.347 15.418 57.4683 15.278C57.599 15.1287 57.6783 14.9327 57.7063 14.69C57.7436 14.4473 57.7623 14.1907 57.7623 13.92V12.814H60.0023V13.752C60.0023 14.4147 59.909 15.0027 59.7223 15.516C59.5356 16.02 59.2136 16.4213 58.7563 16.72C58.299 17.0093 57.655 17.154 56.8243 17.154ZM61.4406 17V5.66H63.7506V10.322H65.7526V5.66H68.0626V17H65.7526V11.974H63.7506V17H61.4406Z" fill="white"/>
<circle cx="6.15385" cy="9.15385" r="4.95385" stroke="white" stroke-width="2.4"/>
<path d="M11.4872 14.4871L16 18.9999" stroke="white" stroke-width="2.4"/>
</svg>
